<svg width="101" height="100" viewBox="0 0 101 100" fill="none" xmlns="http://www.w3.org/2000/svg">
<path d="M64.2838 36.1167C67.8932 36.0084 71.3185 34.4984 73.8333 31.907C76.3481 29.3156 77.7547 25.8465 77.7547 22.2354C77.7547 18.6244 76.3481 15.1553 73.8333 12.5639C71.3185 9.97248 67.8932 8.46251 64.2838 8.35419H36.5171C32.9076 8.46251 29.4823 9.97248 26.9675 12.5639C24.4527 15.1553 23.0462 18.6244 23.0462 22.2354C23.0462 25.8465 24.4527 29.3156 26.9675 31.907C29.4823 34.4984 32.9076 36.0084 36.5171 36.1167C32.8761 36.1798 29.4055 37.6704 26.853 40.2676C24.3004 42.8647 22.8701 46.3606 22.8701 50.0021C22.8701 53.6436 24.3004 57.1395 26.853 59.7366C29.4055 62.3338 32.8761 63.8244 36.5171 63.8875C32.8939 63.9763 29.4489 65.478 26.9178 68.0719C24.3866 70.6659 22.9697 74.1466 22.9697 77.7709C22.9697 81.3951 24.3866 84.8758 26.9178 87.4698C29.4489 90.0637 32.8939 91.5654 36.5171 91.6542C40.1992 91.652 43.7298 90.188 46.3331 87.5839C48.9364 84.9799 50.3993 81.4488 50.4004 77.7667V36.1167H64.2838Z" fill="white" fill-opacity="0.5"/>
<path d="M64.2837 63.8834C71.9513 63.8834 78.1671 57.6676 78.1671 50C78.1671 42.3325 71.9513 36.1167 64.2837 36.1167C56.6162 36.1167 50.4004 42.3325 50.4004 50C50.4004 57.6676 56.6162 63.8834 64.2837 63.8834Z" fill="white" fill-opacity="0.5"/>
</svg>
