<svg width="101" height="100" viewBox="0 0 101 100" fill="none" xmlns="http://www.w3.org/2000/svg">
<path d="M14.5803 9.375L21.0256 82.2852L50.4006 90.625L79.6584 82.2852L86.2307 9.375H14.5803ZM72.6858 26.6699L72.217 31.2793L72.051 33.1836H37.7346L38.5354 42.3828H71.26L70.9377 44.7559L68.8674 68.4082L68.7014 69.9902L50.4397 75.0293V75.0586H50.3225L50.2932 75.0684V75.0586H50.2834L31.8655 69.9805L30.7522 55.8594H39.6487L40.2834 63.0078L50.2834 65.7129H50.3225L60.2834 63.0176L61.3967 51.4355H50.2932V51.4258H30.2834L28.0569 26.6699L27.8909 24.2969H72.842L72.6858 26.6699Z" fill="white" fill-opacity="0.5"/>
</svg>
